<svg id="&#x56FE;&#x5C42;_1" enable-background="new 0 0 256 256" viewBox="0 0 256 256" xmlns="http://www.w3.org/2000/svg" xmlns:xlink="http://www.w3.org/1999/xlink"><linearGradient id="lg1"><stop offset="0" stop-color="#ffd580"/><stop offset="1" stop-color="#e5bc39"/></linearGradient><linearGradient id="XMLID_14_" gradientUnits="userSpaceOnUse" x1="186.205" x2="186.205" xlink:href="#lg1" y1="27.766" y2="131.269"/><linearGradient id="XMLID_15_" gradientUnits="userSpaceOnUse" x1="69.796" x2="69.796" xlink:href="#lg1" y1="27.766" y2="131.269"/><linearGradient id="XMLID_16_" gradientUnits="userSpaceOnUse" x1="66.32" x2="157.293" xlink:href="#lg1" y1="61.244" y2="145.135"/><linearGradient id="XMLID_17_" gradientUnits="userSpaceOnUse" x1="92.047" x2="166.873" y1="229.005" y2="229.005"><stop offset="0" stop-color="#e5bc39"/><stop offset="1" stop-color="#af8604"/></linearGradient><linearGradient id="XMLID_18_" gradientUnits="userSpaceOnUse" x1="129.49" x2="129.49" y1="164.317" y2="174.873"><stop offset="0" stop-color="#af8604"/><stop offset="1" stop-color="#e5bc39"/></linearGradient><path id="XMLID_13_" d="m174.7 48.3s17.6-20 27.2-7.1c10.8 14.4-.5 46.3-42.5 69.2l-5.4 13.9s53.1-22 62.7-61.9c4.4-18.3 0-34.3-13.4-38.1-12.3-3.5-25.6 3.6-28.3 9.1-2.7 5.4-.3 14.9-.3 14.9z" fill="url(#XMLID_14_)"/><path d="m203.9 28.7c9.1 2.6 12.9 11.6 13.1 21.8.2-11-3.4-20.9-13.1-23.6-1.9-.5-4-.8-6.1-.8-9.1 0-17.4 5-19.1 8.5-.9 1.7-1.1 4.1-1 6.5.1-1.7.3-3.4 1-4.7 1.7-3.5 10-8.5 19.1-8.5 2.1 0 4.2.2 6.1.8z" fill="#fff" opacity=".2"/><path id="XMLID_11_" d="m81.3 48.3s-17.6-20-27.2-7.1c-10.8 14.4.5 46.3 42.5 69.2l5.4 13.9s-53.1-22-62.7-61.9c-4.4-18.3 0-34.3 13.4-38.1 12.3-3.5 25.6 3.6 28.3 9.1 2.7 5.4.3 14.9.3 14.9z" fill="url(#XMLID_15_)"/><path d="m59.5 27.9c9.1 0 17.4 5 19.1 8.5.6 1.3.9 2.9 1 4.7.1-2.3-.1-4.8-1-6.5-1.7-3.5-10-8.5-19.1-8.5-2.1 0-4.1.3-6.1.8-9.6 2.7-13.3 12.6-13.1 23.6.2-10.2 4-19.2 13.1-21.8 1.9-.6 4-.8 6.1-.8z" fill="#fff" opacity=".2"/><path id="XMLID_9_" d="m165.8 23c6 0 11.2.1 11.5.3.2.1.4.3.4.6v60.1c0 11.4-4.2 20.1-10.2 29-12 17.7-27.5 19.3-28.2 27.3-.5 5.7-1.4 6.8-.8 15 .5 8.2 6.5 7.6 6.5 12s-6 4.4-6.5 8.2-.5 26.7 12.5 38.7c13.1 12 15.5 7.4 15.8 11.4 0-.5-74.4 0-74.4 0-.5-4.4 15-6.5 19.3-14.2 4.4-7.6 10.6-18 9.3-35.6-.3-3.5-6.9-3.3-7.1-7.4-.3-5.8 7.1-4.9 7.1-10.3s.2-11.5-1.4-16.9c-3.3-10.9-21.4-14.4-28.4-25.9-7.1-11.4-7.2-13.9-9.4-25.9-2-11-.3-57.8 0-65.4 0-.3.2-.5.4-.7.4-.3 5.6-.4 11.6-.4h72z" fill="url(#XMLID_16_)"/><path d="m151 218c2.1 2 4 3.5 5.6 4.7h.8c-2.2-1.4-4.9-3.4-8.2-6.5.6.6 1.2 1.2 1.8 1.8zm14.8-192.3h-71.9c-5.3 0-8 .1-9.5.1-.9 24.5-1.4 55.1.1 63.2l.3 1.9c1.8 10.2 2.3 12.7 8.7 23.1 1.1 1.7 2.4 3.2 4 4.6-.8-.9-1.5-1.8-2.2-2.8-6.4-10.4-6.9-12.8-8.7-23.1l-.3-1.9c-1.5-8-1-37.7-.1-62.2 1.4-.1 4.2-.1 9.5-.1l79.3-1.8v-.8c-1.5-.1-4.2-.2-9.2-.2zm-25 139.7c-.1-.1-.2-.2-.3-.3.6.7 1.1 1.2 1.7 1.7-.2-.3-.5-.7-1.4-1.4zm-17-7.3c0 4.1-2.8 6-4.7 7.2-1.9 1.3-2.4 1.7-2.3 3 0 .5.6.9 1.8 1.5 0-1.1.6-1.6 2.3-2.8 1.9-1.2 4.7-3.1 4.7-7.2 0-.6 0-1.3 0-1.9 0-5 .1-10.6-1.5-15.7-1-3.2-3-5.9-5.5-8.2 1.7 1.9 3 3.9 3.7 6.4 1.5 5.1 1.5 10.8 1.5 15.7zm-.9 15.1c.5.7.8 1.5.8 2.5 1.4 17.9-4.8 28.7-9.3 36.6l-.3.6c-2.7 4.7-8.6 7.5-13.3 9.7-.2.1-.5.2-.8.4h5.7c4-2 8.1-4.5 10.2-8.2l.3-.6c4.5-7.9 10.7-18.6 9.3-36.6-.1-2.2-1.3-3.5-2.6-4.4z" fill="#fff" opacity=".3"/><path id="XMLID_3_" d="m92.5 225h74.5v8h-74.5z" fill="url(#XMLID_17_)"/><path id="XMLID_2_" d="m145 167.5h-31c0 .3-.1.6 0 1 .1 2.7 2.9 3.5 5 4.8h20.8c1.9-1.8 5.1-2.7 5.2-5.8z" fill="url(#XMLID_18_)"/></svg>