<svg id="Capa_1" enable-background="new 0 0 512 512" height="512" viewBox="0 0 512 512" width="512" xmlns="http://www.w3.org/2000/svg"><g><g id="Page-1_18_"><g id="_x30_19---Woodpecker" transform="translate(0 -1)"><path id="Shape_59_" d="m326.768 272.096c3.348 3.234 8.671 3.188 11.962-.104 3.292-3.292 3.338-8.614.104-11.962l-8.533-8.533c-3.332-3.337-8.738-3.34-12.075-.009-3.337 3.332-3.34 8.738-.009 12.075z"/><path id="Shape_58_" d="m213.335 214.855c10.354 0 19.689-6.237 23.651-15.803s1.772-20.577-5.549-27.899-18.333-9.512-27.899-5.549c-9.566 3.962-15.803 13.297-15.803 23.651 0 14.138 11.461 25.6 25.6 25.6zm0-34.134c4.713 0 8.533 3.821 8.533 8.533 0 4.713-3.821 8.533-8.533 8.533s-8.533-3.821-8.533-8.533c-.001-4.712 3.82-8.533 8.533-8.533z"/><path id="Shape_57_" d="m105.567 334.936c-9.619-2.897-17.593-9.677-21.999-18.705-2.304-6.784-1.999-14.182.853-20.753 1.362-2.736 1.157-5.99-.538-8.533-2.831-3.619-3.901-8.312-2.918-12.8 3.296-7.657 9.231-13.877 16.725-17.527 4.213-2.121 5.91-7.256 3.789-11.469s-7.256-5.91-11.469-3.789c-11.83 5.827-20.964 15.984-25.506 28.365-1.971 7.657-.949 15.778 2.859 22.707-3.302 9.64-3.236 20.115.188 29.713 5.977 13.642 17.511 24.07 31.684 28.646 2.832 1.131 6.053.665 8.448-1.222s3.602-4.909 3.166-7.927c-.436-3.019-2.45-5.575-5.282-6.706z"/><path id="Shape_56_" d="m262.47 316.999c32.742 8.192 101.231 8.747 111.693 8.789 51.866 16.853 126.14 17.067 129.306 17.067 3.451-.001 6.562-2.08 7.882-5.268s.591-6.858-1.849-9.298c-17.391-17.391-100.326-68.105-166.613-95.292l-2.142-4.267c-24.542-78.857-89.822-129.408-193.971-150.238-39.091-7.817-55.253-23.159-55.373-23.27-1.936-1.936-4.684-2.825-7.387-2.391s-5.034 2.139-6.266 4.584c-1.377 2.713-2.519 5.54-3.413 8.448-44.553-15.36-58.53-34.799-58.633-34.987-2.067-3.202-6.007-4.645-9.654-3.536-3.646 1.11-6.115 4.503-6.047 8.314.528 32.513 7.41 64.609 20.258 94.481-2.631-1.061-5.617-.745-7.968.843s-3.759 4.24-3.757 7.076c0 1.126.29 27.247 24.986 61.687-3.473 16.324-16.452 80.427-16.452 126.046.357 34.767 3.249 69.462 8.653 103.808.07.438.178.869.324 1.289 8.619 25.873 42.59 30.455 54.878 31.258 18.295 22.118 52.591 19.081 62.882 17.57 19.085 9.411 41.386 9.762 60.757.956 7.61 4.185 16.156 6.372 24.841 6.357 9.756-.121 19.344-2.56 27.972-7.117 30.66 6.093 45.713-12.373 49.382-23.424.522-1.539.587-3.195.188-4.77-.367-1.485-9.702-37.026-61.978-89.293-16.819-16.819-24.311-31.377-20.028-38.938 4.283-7.56 21.179-10.58 37.529-6.484zm115.695-7.834c-63.642-21.214-111.215-52.719-121.327-64.964 17.692-7.829 37.546-9.303 56.201-4.173 54.246 18.082 127.625 60.075 164.087 84.873-33.501-1.24-66.729-6.523-98.961-15.736zm-168.107 5.905c-2.614 4.674-3.765 10.025-3.302 15.36-8.878-3.007-18.181-4.574-27.554-4.642-13.574-.363-26.577-5.534-36.693-14.592-3.355-3.228-8.678-3.17-11.963.129s-3.32 8.622-.078 11.963c13.295 12.279 30.639 19.242 48.734 19.567 12.514.101 24.795 3.396 35.678 9.574 5.143 8.019 11.19 15.42 18.022 22.059 40.636 40.627 53.495 70.153 56.636 78.78-2.714 4.779-10.94 14.438-31.471 9.31-2.339-.597-4.822-.169-6.827 1.178-12.775 7.944-28.953 7.944-41.728 0-2.854-1.853-6.532-1.853-9.387 0-16.013 8.665-35.36 8.475-51.2-.503-1.696-.85-3.628-1.105-5.487-.725-.367.068-37.444 6.827-50.961-13.44-1.584-2.398-4.268-3.839-7.142-3.831-10.052 0-37.077-3.558-42.914-19.183-5.135-33.189-7.904-66.702-8.286-100.284 0-46.857 14.848-116.864 16.666-125.252 8.533-20.685 31.761-40.491 58.138-49.374 18.589-7.543 39.553-6.539 57.335 2.748 2.615 1.637 5.911 1.734 8.618.255 2.708-1.479 4.406-4.305 4.441-7.39s-1.597-5.949-4.27-7.49c-22.061-11.913-48.257-13.475-71.578-4.267-25.094 8.269-46.767 24.571-61.67 46.387-6.165-9.662-10.894-20.168-14.037-31.189 1.264-.166 2.51-.452 3.721-.853 3.242-1.097 6.202-2.895 8.67-5.265 2.769-2.77 3.297-7.07 1.28-10.428-12.831-23.825-20.646-50.026-22.963-76.988 18.967 13.371 40.157 23.27 62.583 29.235 4.031 1.179 8.32-.751 10.112-4.548.716-1.527.968-3.23.725-4.898 15.967 9.148 33.382 15.497 51.49 18.773 93.466 18.697 153.19 62.293 177.894 129.604-.947-.324-1.911-.674-2.859-.99-24.442-7.305-50.788-4.568-73.207 7.603-44.672-7.68-114.901.657-125.312 31.932-.963 2.896-.308 6.086 1.718 8.369s5.117 3.31 8.107 2.697 5.425-2.776 6.389-5.672c5.717-17.118 59.93-27.691 103.253-21.018 6.409 15.121 43.29 39.561 87.62 59.605-20.289-.625-40.492-2.934-60.399-6.903-20.361-5.111-46.711-2.714-56.508 14.601h-.034z"/></g></g></g></svg>