<svg id="Capa_1" enable-background="new 0 0 509.535 509.535" height="512" viewBox="0 0 509.535 509.535" width="512" xmlns="http://www.w3.org/2000/svg"><g><g id="Page-1_18_"><g id="_x30_19---Woodpecker"><path id="Shape_73_" d="m137.766 307.886c11.237 10.069 25.687 15.816 40.77 16.213 10.414.09 20.749 1.817 30.625 5.12-.473-5.929.813-11.865 3.698-17.067 10.904-19.153 40.201-21.902 62.767-16.213 22.123 4.429 44.577 6.998 67.129 7.68-49.304-22.281-90.264-49.399-97.375-66.276-48.166-7.396-108.373 4.361-114.726 23.419-1.304 3.862-4.931 6.458-9.007 6.447-1.028-.026-2.048-.185-3.034-.474-4.943-1.712-7.601-7.07-5.973-12.041 1.157-3.37 2.889-6.514 5.12-9.292 21.239-27.022 89.316-33.849 134.163-26.169 24.924-13.494 54.188-16.53 81.351-8.439l3.129 1.138c-27.402-74.807-93.772-123.258-197.689-144.022-19.261-3.513-37.83-10.108-54.993-19.532.014.697-.018 1.393-.095 2.086-.661 4.677-4.664 8.153-9.387 8.154-1.943-.001-3.858-.455-5.594-1.327-24.605-6.608-47.847-17.522-68.645-32.238 2.568 29.981 11.248 59.119 25.505 85.618 2.183 3.736 1.601 8.471-1.422 11.567-2.774 2.597-6.071 4.569-9.671 5.784-1.341.505-2.744.824-4.172.948 3.56 12.245 8.826 23.927 15.644 34.702 16.546-24.274 40.644-42.405 68.551-51.579 25.89-10.201 54.961-8.467 79.455 4.741 2.977 1.696 4.807 4.867 4.787 8.294-.02 3.426-1.888 6.575-4.885 8.237-2.997 1.661-6.657 1.576-9.574-.222-19.763-10.315-43.061-11.424-63.716-3.034-29.393 9.861-55.182 31.858-64.664 54.803-1.233 5.973-8.439 39.917-13.464 77.274v.19c-2.995 20.446-4.674 41.063-5.025 61.724.422 37.307 3.495 74.536 9.197 111.407 6.542 17.351 36.504 21.333 47.692 21.333 3.172.016 6.125 1.618 7.87 4.267 15.076 22.471 56.225 14.981 56.604 14.886 2.093-.387 4.254-.088 6.163.853 17.599 10.009 39.126 10.188 56.889.474 3.196-2.009 7.27-1.972 10.43.095 14.243 8.777 32.216 8.777 46.459 0 2.185-1.511 4.919-1.996 7.49-1.327 22.85 5.689 31.953-5.025 34.987-10.335-3.508-9.576-17.825-42.382-62.957-87.514-7.555-7.421-14.265-15.657-20.006-24.557-12.084-6.874-25.731-10.53-39.633-10.619-20.091-.391-39.346-8.113-54.139-21.713-3.698-3.726-3.698-9.737 0-13.464 3.7-3.676 9.673-3.676 13.371 0zm78.696-163.935c15.709 0 28.444 12.735 28.444 28.444s-12.735 28.444-28.444 28.444-28.444-12.735-28.444-28.444c.047-15.689 12.754-28.397 28.444-28.444zm-114.441 202.62c-1.438 3.61-4.932 5.977-8.818 5.973-1.201.01-2.393-.216-3.508-.664-15.781-5.031-28.611-16.65-35.176-31.858-3.795-10.655-3.895-22.277-.284-32.996-3.42-6.42-4.808-13.727-3.982-20.954.193-1.439.478-2.864.853-4.267 5.006-13.775 15.172-25.063 28.35-31.479 2.236-1.143 4.836-1.345 7.222-.562s4.36 2.487 5.483 4.733c1.481 2.913 1.373 6.381-.284 9.197-.958 1.496-2.301 2.708-3.887 3.508-8.321 4.092-14.91 11.018-18.584 19.532-1.038 4.984.138 10.173 3.224 14.222 1.885 2.827 2.102 6.449.569 9.481-3.135 7.303-3.473 15.504-.948 23.04 4.911 10.022 13.775 17.546 24.462 20.764 4.829 1.981 7.189 7.461 5.308 12.33z"/><circle id="Oval_19_" cx="216.462" cy="172.405" r="9.481"/><path id="Shape_72_" d="m509.535 323.151c-40.486-27.591-122.027-74.24-182.329-94.341-20.704-5.748-42.764-4.105-62.388 4.646 11.188 13.559 64.095 48.64 134.827 72.154 35.798 10.213 72.691 16.101 109.89 17.541zm-153.6-58.69c-3.739 3.667-9.725 3.667-13.464 0l-9.481-9.481c-3.718-3.718-3.718-9.746 0-13.464s9.746-3.718 13.464 0l9.481 9.481c3.697 3.726 3.697 9.738 0 13.464z"/></g></g></g></svg>